<?xml version="1.0" encoding="utf-8"?>
<!-- Generator: Adobe Illustrator 21.0.0, SVG Export Plug-In . SVG Version: 6.00 Build 0)  -->
<svg version="1.1" id="Calque_1" xmlns="http://www.w3.org/2000/svg" xmlns:xlink="http://www.w3.org/1999/xlink" x="0px" y="0px"
	 viewBox="0 0 300 300" style="enable-background:new 0 0 300 300;" xml:space="preserve">
<g>
	<g>
		<polygon points="75,146.4 75.3,108.8 151.7,64.8 228.2,109 228,146.4 232.4,146.4 232.6,106.6 151.7,59.7 70.8,106.1 70.6,146.4 
					"/>
		<polygon points="228,156.5 228,197.4 151.3,241.4 75,197 75,156.5 70.6,156.5 70.6,199.6 151.3,246.5 232.4,200.1 232.4,156.5 		
			"/>
	</g>
	<g>
		<path d="M108.6,138.6c1.8,1.1,3.1,2.7,4,4.6c0.9,2,1.3,4.4,1.3,7.1c0,2.7-0.4,5.1-1.3,7.1c-0.9,2-2.2,3.5-4,4.6
			c-1.8,1.1-3.8,1.5-6,1.5c-2,0-4-0.4-5.3-1.3c-1.5-0.9-2.7-2.2-3.5-4v14.6h-3.3v-35.4h3.3v4.6c0.9-1.8,2-3.1,3.5-4
			c1.5-0.9,3.3-1.3,5.3-1.3C104.9,136.9,106.9,137.5,108.6,138.6z M108.6,158.1c1.5-1.8,2.2-4.4,2.2-7.7s-0.7-6-2.2-8
			c-1.5-1.8-3.5-2.9-6.2-2.9s-4.9,0.9-6.2,2.7c-1.5,1.8-2.2,4.4-2.2,7.7s0.7,6,2.2,7.7c1.5,1.8,3.5,2.7,6.2,2.7
			C104.9,160.7,107.1,159.9,108.6,158.1z"/>
		<path d="M120.6,126.7h4.2v4h-4.2V126.7z M121,163.2v-25.6h3.3v25.6H121z"/>
		<path d="M154.2,146.8v16.4h-3.3V147c0-2.7-0.4-4.4-1.5-5.5s-2.7-1.8-4.9-1.8c-2.7,0-4.6,0.9-6.2,2.4c-1.5,1.5-2.2,3.5-2.2,6.2
			v14.8h-3.3v-25.6h3.1v4.4c0.9-1.5,2-2.9,3.5-3.8c1.5-0.9,3.3-1.3,5.3-1.3C151.1,136.9,154.2,140.2,154.2,146.8z"/>
	</g>
	<g>
		<path d="M168.3,164.9v-26.5h-10.2v-4.6h26.1v4.6h-10.2v26.5H168.3z"/>
		<path d="M192.2,163.4c-2.2-1.3-4-3.1-5.1-5.5c-1.1-2.4-1.8-5.3-1.8-8.4c0-3.1,0.7-6,1.8-8.4c1.1-2.4,2.9-4.2,5.1-5.5s4.9-2,8-2
			c3.1,0,5.7,0.7,8,2c2.2,1.3,4,3.1,5.1,5.5c1.1,2.4,1.8,5.3,1.8,8.4c0,3.1-0.7,6-1.8,8.4c-1.1,2.4-2.9,4.2-5.1,5.5s-4.9,2-7.7,2
			C197,165.4,194.4,164.7,192.2,163.4z M206.8,157.9c1.5-2,2.4-4.9,2.4-8.4c0-3.8-0.9-6.4-2.4-8.4c-1.5-2-3.8-2.9-6.6-2.9
			s-5.1,0.9-6.6,2.9c-1.5,2-2.4,4.9-2.4,8.4c0,3.8,0.9,6.4,2.4,8.4c1.5,2,3.8,2.9,6.6,2.9C203,160.7,205.2,159.9,206.8,157.9z"/>
	</g>
</g>
</svg>
